<svg xmlns="http://www.w3.org/2000/svg" xmlns:xlink="http://www.w3.org/1999/xlink"><defs><symbol viewBox="0 0 30 30" id="arrow-down">
  <path style="line-height:normal;text-indent:0;text-align:start;text-decoration-line:none;text-decoration-style:solid;text-decoration-color:#000;text-transform:none;block-progression:tb;isolation:auto;mix-blend-mode:normal" d="M 24.990234 8.9863281 A 1.0001 1.0001 0 0 0 24.292969 9.2929688 L 15 18.585938 L 5.7070312 9.2929688 A 1.0001 1.0001 0 0 0 4.9902344 8.9902344 A 1.0001 1.0001 0 0 0 4.2929688 10.707031 L 14.292969 20.707031 A 1.0001 1.0001 0 0 0 15.707031 20.707031 L 25.707031 10.707031 A 1.0001 1.0001 0 0 0 24.990234 8.9863281 z" font-weight="400" font-family="sans-serif" white-space="normal" overflow="visible" />
</symbol><symbol viewBox="0 0 50 50" id="arrow-right">
  <g id="arrow-right_surface1">
    <path style=" " d="M 14.988281 3.992188 C 14.582031 3.992188 14.21875 4.238281 14.0625 4.613281 C 13.910156 4.992188 14 5.421875 14.292969 5.707031 L 33.585938 25 L 14.292969 44.292969 C 14.03125 44.542969 13.925781 44.917969 14.019531 45.265625 C 14.109375 45.617188 14.382813 45.890625 14.734375 45.980469 C 15.082031 46.074219 15.457031 45.96875 15.707031 45.707031 L 35.707031 25.707031 C 36.097656 25.316406 36.097656 24.683594 35.707031 24.292969 L 15.707031 4.292969 C 15.519531 4.097656 15.261719 3.992188 14.988281 3.992188 Z " />
  </g>
</symbol><symbol viewBox="0 0 30 30" id="delete">
    <path d="M 7 4 C 6.744125 4 6.4879687 4.0974687 6.2929688 4.2929688 L 4.2929688 6.2929688 C 3.9019687 6.6839688 3.9019687 7.3170313 4.2929688 7.7070312 L 11.585938 15 L 4.2929688 22.292969 C 3.9019687 22.683969 3.9019687 23.317031 4.2929688 23.707031 L 6.2929688 25.707031 C 6.6839688 26.098031 7.3170313 26.098031 7.7070312 25.707031 L 15 18.414062 L 22.292969 25.707031 C 22.682969 26.098031 23.317031 26.098031 23.707031 25.707031 L 25.707031 23.707031 C 26.098031 23.316031 26.098031 22.682969 25.707031 22.292969 L 18.414062 15 L 25.707031 7.7070312 C 26.098031 7.3170312 26.098031 6.6829688 25.707031 6.2929688 L 23.707031 4.2929688 C 23.316031 3.9019687 22.682969 3.9019687 22.292969 4.2929688 L 15 11.585938 L 7.7070312 4.2929688 C 7.5115312 4.0974687 7.255875 4 7 4 z" />
</symbol><symbol viewBox="0 0 30 30" id="error">
    <path d="M 15 3 C 14.168432 3 13.456063 3.5067238 13.154297 4.2285156 L 2.3007812 22.947266 L 2.3007812 22.949219 A 2 2 0 0 0 2 24 A 2 2 0 0 0 4 26 A 2 2 0 0 0 4.140625 25.994141 L 4.1445312 26 L 15 26 L 25.855469 26 L 25.859375 25.992188 A 2 2 0 0 0 26 26 A 2 2 0 0 0 28 24 A 2 2 0 0 0 27.699219 22.947266 L 27.683594 22.919922 A 2 2 0 0 0 27.681641 22.917969 L 16.845703 4.2285156 C 16.543937 3.5067238 15.831568 3 15 3 z M 13.787109 11.359375 L 16.212891 11.359375 L 16.011719 17.832031 L 13.988281 17.832031 L 13.787109 11.359375 z M 15.003906 19.810547 C 15.825906 19.810547 16.318359 20.252813 16.318359 21.007812 C 16.318359 21.748812 15.825906 22.189453 15.003906 22.189453 C 14.175906 22.189453 13.679688 21.748813 13.679688 21.007812 C 13.679688 20.252813 14.174906 19.810547 15.003906 19.810547 z" />
</symbol><symbol viewBox="0 0 50 50" id="home">
  <path style="line-height:normal;text-indent:0;text-align:start;text-decoration-line:none;text-decoration-style:solid;text-decoration-color:#000;text-transform:none;block-progression:tb;isolation:auto;mix-blend-mode:normal" d="M 24.962891 1.0546875 A 1.0001 1.0001 0 0 0 24.384766 1.2636719 L 1.3847656 19.210938 A 1.0005659 1.0005659 0 0 0 2.6152344 20.789062 L 4 19.708984 L 4 46 A 1.0001 1.0001 0 0 0 5 47 L 18.832031 47 A 1.0001 1.0001 0 0 0 19.158203 47 L 30.832031 47 A 1.0001 1.0001 0 0 0 31.158203 47 L 45 47 A 1.0001 1.0001 0 0 0 46 46 L 46 19.708984 L 47.384766 20.789062 A 1.0005657 1.0005657 0 1 0 48.615234 19.210938 L 41 13.269531 L 41 6 L 35 6 L 35 8.5859375 L 25.615234 1.2636719 A 1.0001 1.0001 0 0 0 24.962891 1.0546875 z M 25 3.3222656 L 44 18.148438 L 44 45 L 32 45 L 32 26 L 18 26 L 18 45 L 6 45 L 6 18.148438 L 25 3.3222656 z M 37 8 L 39 8 L 39 11.708984 L 37 10.146484 L 37 8 z M 20 28 L 30 28 L 30 45 L 20 45 L 20 28 z" font-weight="400" font-family="sans-serif" white-space="normal" overflow="visible" />
</symbol><symbol viewBox="0 0 30 30" id="info">
    <path d="M15,3C8.373,3,3,8.373,3,15c0,6.627,5.373,12,12,12s12-5.373,12-12C27,8.373,21.627,3,15,3z M16,21h-2v-7h2V21z M15,11.5 c-0.828,0-1.5-0.672-1.5-1.5s0.672-1.5,1.5-1.5s1.5,0.672,1.5,1.5S15.828,11.5,15,11.5z" />
</symbol><symbol viewBox="0 0 50 50" id="menu">
  <g id="menu_surface1">
    <path style=" " d="M 0 9 L 0 11 L 50 11 L 50 9 Z M 0 24 L 0 26 L 50 26 L 50 24 Z M 0 39 L 0 41 L 50 41 L 50 39 Z " />
  </g>
</symbol><symbol viewBox="0 0 30 30" id="more">
  <path d="M 5 12 C 3.343 12 2 13.343 2 15 C 2 16.657 3.343 18 5 18 C 6.657 18 8 16.657 8 15 C 8 13.343 6.657 12 5 12 z M 15 12 C 13.343 12 12 13.343 12 15 C 12 16.657 13.343 18 15 18 C 16.657 18 18 16.657 18 15 C 18 13.343 16.657 12 15 12 z M 25 12 C 23.343 12 22 13.343 22 15 C 22 16.657 23.343 18 25 18 C 26.657 18 28 16.657 28 15 C 28 13.343 26.657 12 25 12 z" />
</symbol><symbol viewBox="0 0 30 30" id="ok">
    <path d="M15,3C8.373,3,3,8.373,3,15c0,6.627,5.373,12,12,12s12-5.373,12-12C27,8.373,21.627,3,15,3z M21.707,12.707l-7.56,7.56 c-0.188,0.188-0.442,0.293-0.707,0.293s-0.52-0.105-0.707-0.293l-3.453-3.453c-0.391-0.391-0.391-1.023,0-1.414s1.023-0.391,1.414,0 l2.746,2.746l6.853-6.853c0.391-0.391,1.023-0.391,1.414,0S22.098,12.316,21.707,12.707z" />
</symbol></defs></svg>